<svg width="16" height="16" viewBox="0 0 16 16" fill="none" xmlns="http://www.w3.org/2000/svg">
<path d="M11.6364 5.44181C11.7799 5.40396 11.8991 5.30433 11.9619 5.16987C12.0247 5.03542 12.0245 4.88002 11.9614 4.74572L10.8542 2.38946C10.7717 2.21387 10.5951 2.10186 10.401 2.1021C10.207 2.10234 10.0307 2.21479 9.94861 2.39058L9.46019 3.43674C9.44273 3.42987 9.4247 3.42392 9.40615 3.41895C6.50791 2.64237 3.52889 4.36231 2.75231 7.26054C1.97573 10.1588 3.69567 13.1378 6.5939 13.9144C9.49214 14.691 12.4712 12.971 13.2477 10.0728C13.4947 9.15116 13.4891 8.2199 13.2728 7.35408C13.2059 7.08617 12.9345 6.92324 12.6666 6.99017C12.3987 7.05709 12.2357 7.32853 12.3027 7.59644C12.4789 8.30177 12.4837 9.06048 12.2818 9.81397C11.6482 12.1787 9.21749 13.5821 6.85272 12.9485C4.48796 12.3148 3.0846 9.88413 3.71824 7.51936C4.34151 5.19326 6.70355 3.79739 9.03129 4.35542L8.53849 5.41096C8.45642 5.58675 8.48345 5.79415 8.60783 5.94304C8.73222 6.09193 8.93151 6.15542 9.1191 6.10593L11.6364 5.44181Z" fill="white" />
</svg>
