<svg width="16" height="16" viewBox="0 0 16 16" xmlns="http://www.w3.org/2000/svg">
<path fill-rule="evenodd" clip-rule="evenodd" d="M10.0913 2.31311C9.99751 2.21934 9.87033 2.16667 9.73772 2.16667C9.60511 2.16667 9.47794 2.21934 9.38417 2.31311L3.25591 8.44137C3.19309 8.50419 3.14815 8.58261 3.12569 8.66856L2.45903 11.2208C2.41417 11.3926 2.46373 11.5752 2.58924 11.7008C2.71476 11.8263 2.89741 11.8758 3.06916 11.831L5.62144 11.1643C5.7074 11.1419 5.78582 11.0969 5.84863 11.0341L11.9769 4.90584C12.1722 4.71058 12.1722 4.39399 11.9769 4.19873L10.0913 2.31311ZM4.05895 9.05255L9.73772 3.37377L10.9162 4.55228L5.23746 10.2311L3.64228 10.6477L4.05895 9.05255Z" fill="white" />
<path d="M2.66666 12.8333C2.39051 12.8333 2.16666 13.0572 2.16666 13.3333C2.16666 13.6095 2.39051 13.8333 2.66666 13.8333H12.6667C12.9428 13.8333 13.1667 13.6095 13.1667 13.3333C13.1667 13.0572 12.9428 12.8333 12.6667 12.8333H2.66666Z" fill="white" />
</svg>
