<svg width="2" height="14" viewBox="0 0 2 14" fill="none" xmlns="http://www.w3.org/2000/svg">
<path fill-rule="evenodd" clip-rule="evenodd" d="M1 -4.37114e-08C1.55228 -1.95703e-08 2 0.447715 2 1L2 9C2 9.55229 1.55228 10 1 10C0.447715 10 -4.17544e-07 9.55229 -3.93403e-07 9L-4.37114e-08 1C-1.95703e-08 0.447715 0.447715 -6.78525e-08 1 -4.37114e-08Z" fill="white"/>
<path d="M2 13C2 13.5523 1.55228 14 1 14C0.447715 14 0 13.5523 0 13C0 12.4477 0.447715 12 1 12C1.55228 12 2 12.4477 2 13Z" fill="white"/>
</svg>
