<svg width="20" height="20" viewBox="0 0 20 20" fill="none" xmlns="http://www.w3.org/2000/svg">
<path d="M10 4.50002C10.2762 4.50002 10.5 4.72388 10.5 5.00002C10.5 5.27617 10.2762 5.50002 10 5.50002C9.72387 5.50002 9.50002 5.27617 9.50002 5.00002C9.50002 4.72388 9.72387 4.50002 10 4.50002ZM10 9.50002C10.2762 9.50002 10.5 9.72388 10.5 10C10.5 10.2762 10.2762 10.5 10 10.5C9.72387 10.5 9.50002 10.2762 9.50002 10C9.50002 9.72388 9.72387 9.50002 10 9.50002ZM10 14.5C10.2762 14.5 10.5 14.7239 10.5 15C10.5 15.2762 10.2762 15.5 10 15.5C9.72387 15.5 9.50002 15.2762 9.50002 15C9.50002 14.7239 9.72387 14.5 10 14.5Z" fill="white" stroke="white" stroke-width="1.5"/>
</svg>
