<svg width="34" height="34" viewBox="0 0 34 34" fill="none" xmlns="http://www.w3.org/2000/svg">
<path d="M18.0625 9.91667C18.0625 9.32987 17.5868 8.85417 17 8.85417C16.4132 8.85417 15.9375 9.32987 15.9375 9.91667V15.9375H9.91667C9.32987 15.9375 8.85417 16.4132 8.85417 17C8.85417 17.5868 9.32987 18.0625 9.91667 18.0625H15.9375V24.0833C15.9375 24.6701 16.4132 25.1458 17 25.1458C17.5868 25.1458 18.0625 24.6701 18.0625 24.0833V18.0625H24.0833C24.6701 18.0625 25.1458 17.5868 25.1458 17C25.1458 16.4132 24.6701 15.9375 24.0833 15.9375H18.0625V9.91667Z" fill="white"/>
</svg>
