<svg width="32" height="32" viewBox="0 0 32 32" fill="none" xmlns="http://www.w3.org/2000/svg">
<path d="M12.3333 4C12.3333 3.44772 12.781 3 13.3333 3H18.6667C19.2189 3 19.6667 3.44772 19.6667 4V5H25.3333C25.8856 5 26.3333 5.44772 26.3333 6C26.3333 6.55228 25.8856 7 25.3333 7H6.66666C6.11438 7 5.66666 6.55228 5.66666 6C5.66666 5.44772 6.11438 5 6.66666 5H12.3333V4Z" fill="white"/>
<path fill-rule="evenodd" clip-rule="evenodd" d="M8.31986 10.593C8.35737 10.2554 8.64275 10 8.98245 10H23.0175C23.3572 10 23.6426 10.2554 23.6801 10.593L23.947 12.9948C24.428 17.3241 24.428 21.6934 23.947 26.0227L23.9207 26.2592C23.7455 27.8359 22.5235 29.0932 20.9523 29.3132C17.6668 29.7731 14.3332 29.7731 11.0477 29.3132C9.47649 29.0932 8.25446 27.8359 8.07926 26.2591L8.05299 26.0227C7.57196 21.6934 7.57196 17.3241 8.05299 12.9948L8.31986 10.593ZM14.3333 15.2C14.3333 14.6477 13.8856 14.2 13.3333 14.2C12.781 14.2 12.3333 14.6477 12.3333 15.2L12.3333 24.5333C12.3333 25.0856 12.781 25.5333 13.3333 25.5333C13.8856 25.5333 14.3333 25.0856 14.3333 24.5333L14.3333 15.2ZM19.6667 15.2C19.6667 14.6477 19.219 14.2 18.6667 14.2C18.1144 14.2 17.6667 14.6477 17.6667 15.2V24.5333C17.6667 25.0856 18.1144 25.5333 18.6667 25.5333C19.2189 25.5333 19.6667 25.0856 19.6667 24.5333V15.2Z" fill="white"/>
</svg>
